<svg width="317" height="343" viewBox="0 0 317 343" fill="none" xmlns="http://www.w3.org/2000/svg">
<g clip-path="url(#clip0_3195_913)">
<path d="M97.4999 37.3C100.8 36.3 104.3 36 107.7 36.6C116.8 38.3 125.3 42.8 132.2 49C140.5 56.5 146.7 66.1 151.5 76.1C154.8 83 157.6 90.1 160.1 97.3C164.3 84.9 168.7 72.4 176.3 61.6C179.9 56.6 184 51.9 188.5 47.8C193.2 43.6 198.4 40 204.3 37.9C210.4 35.7 217.4 35.7 223.5 38.1C228.4 40 232.7 43.1 236.5 46.7C238.6 48.7 240.7 50.9 242 53.5C244.3 58.3 244.6 63.8 244.2 69C243.7 74.9 242.4 80.7 240.5 86.3C238.6 91.7 236 97 232.4 101.5C228.2 106.7 223.5 111.4 218.7 116.1C209.8 124.7 200.8 133.2 191.7 141.6C182.4 150.2 173 158.6 163.5 166.9C167.1 167.2 170.8 167.7 174.2 169.2C178.3 171 181.7 174.2 184.3 177.8C187.7 182.4 190.3 187.8 194.8 191.5C197.4 193.5 200.3 195.3 201.8 198.4C203.1 201.4 203.4 204.9 203 208.1C207.2 208.8 211.2 210.2 215.1 211.8C217.3 212.8 219.6 214.1 220.9 216.2C221.3 217.1 220.9 218.1 220.8 219C218.5 215.7 214.6 214.2 210.9 213.1C208.1 212.3 205.3 211.5 202.4 211.1C202 212.7 201.5 214.2 200.8 215.7C204.4 217 207.8 218.8 211.1 220.7C213.3 222 215.5 223.6 216.6 226C217.1 226.9 216.7 228 216.5 228.9C215.3 226.3 212.9 224.6 210.5 223.2C207 221.2 203.3 219.6 199.5 218.3C197.2 222.4 194.9 226.6 191.3 229.6C187.9 232.5 183.2 233.9 178.7 233.4C173.5 232.9 168.6 230.4 164.6 227.1C162.9 225.6 161.1 224.2 159.5 222.6C156.2 226.9 151.9 230.6 146.8 232.5C142.4 234.2 137.3 234.1 133 232C127.3 229.2 123 224.1 120 218.7C117 219.8 114.1 221.2 111.3 222.8C108.6 224.3 105.9 226.2 104.5 229C104.4 228 104 226.9 104.5 226C105.4 224.1 107.1 222.6 108.9 221.4C112 219.3 115.4 217.8 118.8 216.4C118.2 215 117.7 213.6 117.2 212.1C114.5 212.8 111.8 213.7 109.1 214.6C106.4 215.7 103.5 217 101.9 219.6C101.8 218.7 101.5 217.7 101.7 216.8C102.6 215.2 104.1 214.1 105.6 213.2C109 211.3 112.8 210.3 116.5 209.3C115.8 205.7 116 201.9 117.6 198.6C119.2 195.6 121.9 193.4 124.4 191.1C128.4 187.6 131.2 183.1 134.4 178.9C137.6 174.8 141.4 171 146 168.6C148.6 167.2 151.6 166.8 154.5 167C145.3 159 136.2 150.9 127.3 142.6C117.2 133.2 107.1 123.8 97.2999 114.1C90.4999 107.2 83.9999 99.7 79.7999 90.9C76.5999 84.6 74.7999 77.6 74.1999 70.6C73.6999 65.1 73.7999 59.3 76.0999 54.2C77.0999 52 78.5999 50 80.2999 48.3C85.2999 43.5 90.8999 39.2 97.4999 37.3ZM199.7 45.7C189.8 51.3 181.5 59.6 175.4 69.1C168 80.7 163.1 93.7 158.7 106.6C158.7 104.8 158 102.9 158.7 101.1C158.8 100.6 159.2 100.1 158.9 99.6C155.4 89.8 151.5 80.2 146 71.4C140.2 61.8 132.4 53.3 122.6 47.6C116.7 44.2 110.1 41.4 103.1 41.7C95.8999 42 88.9999 45.5 83.6999 50.5C80.7999 53.2 77.5999 56 76.0999 59.9C74.2999 65.2 74.9999 71 76.5999 76.3C77.8999 80.7 79.5999 85.1 81.8999 89.1C86.2999 97.2 92.3999 104.1 98.9999 110.6C104.4 115.8 109.9 120.8 115.4 126C129.7 139.5 144.4 152.8 159.2 165.7C169.2 157.1 179 148.3 188.7 139.4C197.5 131.4 206.1 123.1 214.8 115C222.7 107.6 230.5 99.8 236 90.4C239.1 85.1 241.2 79.2 242.7 73.3C244 68.2 244.5 62.5 241.7 57.8C239.1 53.9 235.7 50.6 231.9 47.8C226 43.5 218.7 40.7 211.4 41.5C207.1 41.9 203.2 43.6 199.7 45.7ZM156.6 172.2C152 172.7 147 172.9 143.1 175.7C136.3 180.6 132.5 188.4 126.7 194.3C124.2 196.8 121.2 198.8 119.3 201.8C117.9 203.9 117.6 206.6 118.1 209.1C124.1 207.9 130.3 207.4 136.5 207.8C136.5 208.8 136.5 209.7 136.5 210.7C130.7 210.4 124.8 210.5 119.2 211.8C119.6 213.2 120.5 214.4 121.2 215.6C126.4 213.8 131.9 212.6 137.3 212.1C137.4 213.1 137.5 214 137.4 215C132.5 215.5 127.5 216.4 122.8 217.9C126.1 222 129.7 226.1 134.6 228.1C137.6 229.4 141.1 229.6 144.3 228.6C150 227.1 154.7 223.2 158.6 218.9C157.5 216.9 157.3 214.5 157.1 212.3C155.7 211.4 154.3 210.5 153.2 209.3C152.7 208.7 152.1 207.9 152.2 207C152.3 205.7 153.7 204.9 154.8 205.2C156.8 205.6 158.4 207.1 160 208.4C161.6 206.9 163.4 205.2 165.6 204.7C167.2 204.5 168.1 206.6 167.3 207.8C166.3 209.7 164.4 211 162.6 212.2C162.4 214.4 162.4 216.8 161.2 218.8C165 222.7 169.4 226 174.6 227.9C178.8 229.4 183.7 229.2 187.7 227.1C191.8 225 194.8 221.4 197.2 217.6C192.9 216.4 188.5 215.5 184.1 215.1C184 214.1 184 213.2 184.1 212.2C189 212.7 193.9 213.6 198.7 215C199.5 213.7 200.3 212.3 201 210.9C196.2 210.1 191.3 210 186.5 210.2C186.4 209.2 186.4 208.3 186.5 207.3C191.7 207.1 196.9 207.1 202 208C202.4 206.2 202.3 204.2 201.3 202.6C199.4 199.7 196.3 198 193.7 195.8C190.1 192.9 188 188.8 185.6 184.9C182.9 180.4 179.2 176.4 174.4 174.2C170.7 172.5 166.7 172 162.7 171.8C160.6 172 158.6 171.8 156.6 172.2ZM145.6 184.2C146.5 183.8 147.5 184.4 147.9 185.2C148.9 186.9 149 188.9 148.8 190.8C148.6 192.2 148.3 193.7 147.1 194.6C146.3 195.2 145.3 194.9 144.7 194.1C143.5 192.4 143.3 190.2 143.5 188.2C143.7 186.8 144.1 185 145.6 184.2ZM169.6 185.3C170 184.5 170.9 183.9 171.8 184.2C172.9 184.6 173.4 185.8 173.6 186.8C174.1 188.8 174.1 191 173.4 193C173.1 194 172.3 194.8 171.2 195.1C169.5 194.6 168.9 192.8 168.7 191.2C168.5 189.2 168.5 187 169.6 185.3Z" fill="#272727"/>
<path d="M114.7 268.5C117.4 266.6 120.9 266 124.1 266.7C126.4 267.3 128.6 268.8 129.6 271C130.2 272.4 130.3 273.9 129.9 275.4C129.3 275.5 128.7 275.6 128.1 275.6C123.8 275.6 119.4 275.6 115.1 275.6C114.6 275.7 113.6 275.5 113.6 276.3C113.2 280.5 114.9 285.2 118.7 287.3C120.6 288.3 122.8 288.7 124.9 288.4C126.7 288.1 128 286.8 129.1 285.5C129.6 285.5 130 285.8 130.3 286.2C128.1 291.1 121.9 293.1 117 291.5C113.7 290.6 111.1 287.9 110 284.6C108.1 279 109.8 272 114.7 268.5ZM114 273.7C115.7 273.8 117.4 273.7 119.1 273.8C121 273.8 122.9 273.9 124.7 273.4C125.2 273.3 125.4 272.7 125.4 272.3C125.5 270.9 124.7 269.5 123.4 268.9C119.7 267 114.8 269.7 114 273.7ZM132.5 250.4C134.8 249.6 137.2 248.8 139.4 247.7C139.5 247.8 139.8 247.9 139.9 248C139.6 260.1 139.8 272.2 139.7 284.3C139.7 285.7 139.6 287.2 140.1 288.6C140.9 289.7 142.4 289.6 143.6 289.7C143.9 290.2 143.7 290.8 143.6 291.3C139.5 291.1 135.4 291.1 131.4 291.3C131.1 290.5 131.1 289.3 132.4 289.6C132.1 289.5 131.9 289.3 131.6 289.2C132.1 289 132.4 289.2 132.7 289.5C133.4 289.4 134.2 289.4 134.6 288.7C135.2 287.7 135 286.6 135.1 285.5C135.1 275.9 135.1 266.2 135.1 256.6C135.1 255.5 135.1 254.5 134.8 253.4C134.4 252.4 133.2 252 132.5 251.4C132.6 251.1 132.5 250.7 132.5 250.4ZM148 266.5C149 265.5 149.8 264.2 150.5 263C150.9 263 151.3 263.1 151.7 263.1C151.8 264.4 151.6 265.8 151.9 267.1C154.5 267.3 157.1 267 159.7 267.2C160.3 267.9 160.3 268.9 159.9 269.7C157.3 270 154.5 269.5 151.9 270C151.9 270.1 151.8 270.4 151.8 270.6C151.8 274.9 151.8 279.3 151.8 283.6C151.9 285 152 286.4 152.7 287.6C153.5 288.9 155.2 289.4 156.6 289.2C157.7 289.1 158.6 288.4 159.5 287.9C159.7 288.3 160.2 288.8 159.8 289.3C158.2 291 155.8 292 153.4 291.9C151.7 291.9 149.8 291.6 148.6 290.3C147.4 289 147.2 287.1 147.2 285.5C147.2 280.7 147.2 276 147.2 271.2C147.1 270.8 147.3 270 146.7 269.9C145.8 269.7 144.8 269.9 143.9 269.7C143.9 269.3 143.9 268.9 144 268.5C145.4 268 146.9 267.5 148 266.5ZM67 265.6C67.4 265.3 67.8 265.8 67.7 266.2C67.7 267.5 67.7 268.7 67.7 270C69.5 268.6 71.3 267 73.6 266.4C74.9 266.1 76.5 266.5 77.1 267.8C77.8 269.3 76.9 271.2 75.2 271.6C73.6 272 72.6 270.4 71.1 270.3C69.8 270 68.5 271 68.1 272.2C67.7 273.4 67.7 274.7 67.7 276C67.7 279.6 67.7 283.2 67.7 286.8C67.8 287.7 67.8 288.9 68.8 289.3C69.9 289.7 71.1 289.5 72.2 289.7C72.7 290.1 72.4 290.8 72.3 291.3C68 291.1 63.7 291 59.5 291.3C59.3 290.8 59.2 290.2 59.5 289.7C60.8 289.6 62.8 289.4 62.9 287.7C63.2 282.6 63 277.5 63 272.4C63.1 271.1 62 270.3 61 269.7C60.5 269.5 60.7 268.9 60.7 268.5C63.1 267.8 65 266.6 67 265.6ZM41.6 268.4C45.4 266.2 50.2 265.8 54.4 267C56.3 267.3 56.7 269.8 56 271.3C55.8 272.1 54.7 272.5 54.2 271.8C52.8 270.1 50.8 268.7 48.5 268.5C45.8 268.3 43 269.7 41.5 272C38.5 276.6 39.5 283.4 43.9 286.8C46.9 289 51.7 289.4 54.6 286.8C55.2 286.2 55.8 285.5 56.3 284.8C56.7 285 57.1 285.3 57.4 285.6C56.5 287.7 54.9 289.4 53 290.5C49.2 292.6 44.4 292.5 40.7 290.4C38 288.8 36.2 286 35.6 282.9C35.3 281 35.3 279 35.6 277.2C36.1 273.5 38.3 270.2 41.6 268.4ZM85.4 266.8C86.1 266.6 86.9 266.3 87.7 266.4C87.5 271.7 87.6 277.1 87.6 282.4C87.7 284.4 87.8 286.6 89.4 288C90.2 288.6 91.3 289.1 92.4 289L92.5 288.9C94 289.5 95.7 288.7 97 288C98.3 287.4 99.2 286 99.2 284.5C99.3 280.6 99.2 276.7 99.2 272.7C99.1 271.7 99.2 270.6 98.4 269.8C97.7 269.2 96.8 269 96 268.7C95.9 268.2 95.9 267.7 96.1 267.3C98.6 267.3 101.1 267 103.4 266.3L103.8 266.4C104 267.2 103.8 268.1 103.8 268.9C103.8 274.1 103.8 279.3 103.8 284.5C103.9 285.7 103.8 287.1 104.5 288.2C105.4 289.2 107 288.5 108.1 288.4C108.3 289 108.6 290.2 107.7 290.3C105 290.8 102.2 291.5 99.7 292.5C98.5 291.7 99.9 289.5 98.8 288.8C96.7 290 94.6 291.4 92.1 291.8C89.8 292.1 87.1 292 85.2 290.5C83.6 289.2 83.1 287.1 83 285.2C83 281.3 83 277.3 83 273.4C82.9 272.3 83.1 271 82.5 270C81.9 269.3 81 269 80.2 268.7C80.2 268.3 80.3 267.9 80.3 267.4C82 267.4 83.8 267.3 85.4 266.8ZM179.2 267.1C182 267.3 184.9 267.3 187.8 267.1C188.5 267 188.5 267.9 188.4 268.4C188.1 268.8 187.6 268.8 187.2 268.9C185.8 269.1 184.8 270.2 184.1 271.3C182.9 273.3 182 275.4 181 277.4C176.9 285.8 172.9 294.2 169 302.7C168.5 303.8 168 305 167 305.7C166.1 306.4 164.9 306.2 163.8 306.2C161.7 305.8 161.4 302.3 163.4 301.4C164.6 300.8 166.1 301.6 167.2 300.7C168 299.9 168.5 298.8 169.1 297.9C170.1 296 171.2 294 171.7 291.8C172.1 290.3 171.5 288.8 171.1 287.4C169.3 282.3 167.4 277.3 165.6 272.2C165.2 271.2 164.8 270 163.8 269.4C163 268.9 162 268.9 161.1 268.6C160.5 268.3 160.9 267.5 161 267C164.6 267.2 168.3 267.3 171.9 267C172.8 266.7 172.9 267.9 172.6 268.4C171.6 268.8 170.6 268.8 169.6 269.3C169.8 271.1 170.5 272.7 171.1 274.4C172.4 278 173.5 281.7 175.1 285.1C177.3 281.1 178.9 276.8 180.7 272.6C181 271.6 181.7 270.4 181.4 269.4C180.5 268.6 179.2 268.8 178 268.5C178 268 177.8 267.5 178.1 267.1C178.2 266.9 178.7 267.1 179.2 267.1Z" fill="#272727"/>
<path d="M204.1 53.5C207.6 51.5 211.7 50.2 215.8 50.6C218.9 50.8 221.9 51.9 224.6 53.6C227.1 55.2 229.5 57.1 230.9 59.7C232.8 63.1 233 67.2 232.4 71C231.3 77.7 228.2 83.8 224.9 89.6C218.8 99.8 211.3 109.1 203.3 117.9C195.3 126.7 186.9 135 178 142.8C174.2 146.1 170.3 149.3 166.2 152.3C164.2 153.7 162.2 155.2 159.9 155.9C157.9 155.4 156.2 154.1 154.5 153C149.3 149.3 144.4 145.1 139.6 140.8C134.2 136 128.9 130.9 123.8 125.7C113.4 115.1 103.4 103.9 94.8997 91.6C91.3997 86.4 88.1997 81 86.0997 75C84.8997 71.6 84.1997 68 84.8997 64.5C85.3997 62 86.9997 59.8 89.0997 58.4C93.8997 55 99.6997 52.6 105.7 53C112 53.3 117.7 56.5 122.4 60.5C128.7 65.9 133.7 72.8 138 79.9C146.9 94.8 153.3 111 158.5 127.4C163 114.7 168.3 102.3 174.5 90.4C179.7 80.6 185.4 71 192.9 62.7C196.2 59.2 199.9 55.9 204.1 53.5Z" fill="#EE75AA"/>
<path d="M199.2 251.8C201.1 249.4 204.1 248.1 207.2 247.8C209.2 247.6 211.4 247.8 213.2 248.7C214.9 249.6 216.4 251.5 215.9 253.5C215.6 256 212.2 256.8 210.4 255.4C209 254 208 252 206.2 251.1C205.1 250.7 204.2 251.7 203.9 252.6C202.9 255.4 203.3 258.5 203.2 261.4C203.3 263.2 203 265 203.4 266.7C205.8 266.9 208.3 266.8 210.7 266.8C211 267.9 211.1 269.3 210.2 270.1C207.9 270.5 205.5 269.8 203.2 270.5C203.1 275 203.2 279.5 203.1 284C203.1 285.4 203 286.9 203.5 288.3C204.4 289.6 206.2 288.9 207.4 289.5C207.9 290 207.6 290.8 207.5 291.5C202.3 291.3 197.1 291.2 191.9 291.5C191.3 291.1 191.3 289.9 191.8 289.4C192.8 289.2 194.3 289.4 194.8 288.2C195.2 286.9 195.1 285.5 195.2 284.1C195.2 280.1 195.2 276 195.2 272C195.1 271.4 195.3 270.4 194.5 270.4C193.4 270.3 192.4 270.4 191.3 270.4C191.2 269.9 190.9 269.3 191.2 268.8C192.3 268 193.8 267.6 194.9 266.7C195.4 266.1 195.2 265.2 195.3 264.4C195.4 259.9 196.2 255.2 199.2 251.8ZM220.6 265.3C221.1 264.9 221.7 265.2 222 265.6C222.1 266.7 221.6 267.8 221.9 268.9C222.5 269.2 223 268.5 223.4 268.2C225 266.9 227.1 265.5 229.3 266.2C231.5 266.9 232.2 269.7 231.2 271.6C230.6 273.2 228.7 273.9 227.1 273.6C225.6 273.3 224.7 271.7 223.2 271.4C222.5 271.2 222.1 272 222 272.6C221.7 274.8 221.8 277.1 221.8 279.3C221.8 282 221.7 284.6 222 287.3C222.1 287.9 222.2 288.8 222.9 289C224 289.3 225.1 289.3 226.2 289.4C226.4 290.1 226.4 290.8 226.2 291.5C220.9 291.5 215.7 291.3 210.4 291.5C210.1 290.8 210 290 210.4 289.3C211.5 289.1 213.2 289.3 213.6 288C214.1 286.1 213.8 284.1 213.9 282.1C213.8 279 214 276 213.8 272.9C213.8 271.7 212.4 271.2 211.7 270.5C211.5 269.9 211.4 269 212.2 268.8C215.2 267.8 218 266.8 220.6 265.3ZM268.5 266.2C271.2 265.8 274.1 266 276.5 267.4C279.3 269 280.9 272.4 280.5 275.6C280.4 276.4 279.5 276.8 278.7 276.8C274.2 276.9 269.8 276.7 265.3 276.9C264.9 280.1 266.3 283.6 269 285.4C270.8 286.7 273.2 286.9 275.4 286.6C277 286.3 278.2 285.2 279.1 283.9C279.8 282.9 281.3 284.2 280.9 285.1C279.4 288.6 275.9 291.3 272.1 291.8C267.9 292.4 263.3 291.1 260.5 287.8C257 283.6 256.8 277.3 259.4 272.6C261.2 269.2 264.7 266.8 268.5 266.2ZM265.6 273.5C266.5 274.3 267.7 274 268.8 274C270.2 273.9 271.7 274.2 273 273.6C273.7 273 273.5 272 273.4 271.2C273.1 269.7 271.5 268.7 270.1 268.9C267.8 269.1 265.8 271.1 265.6 273.5ZM237.3 268.6C240.4 266.2 244.6 265.5 248.4 266.3C251.1 266.9 253.6 268.9 254.5 271.5C255 272.8 255.3 274.3 254.9 275.7C254.7 276.4 254 276.6 253.4 276.7C248.9 276.9 244.3 276.6 239.8 276.9C239.4 280 240.7 283.4 243.3 285.3C245.2 286.7 247.8 287 250.1 286.5C251.6 286.2 252.8 285.1 253.6 283.9C254.3 282.9 255.8 284.2 255.4 285.1C254.6 287 253.2 288.6 251.5 289.8C246.2 293.6 237.8 292.3 234.2 286.7C230.6 281.2 231.9 272.8 237.3 268.6ZM240.3 273.7C241.6 274.1 243 273.9 244.4 274C245.4 274 246.5 274.1 247.4 273.6C248.3 273.2 248.1 272.1 248 271.4C247.8 269.9 246.4 268.8 245 268.9C242.5 268.9 240 271.1 240.3 273.7Z" fill="#EE75AA"/>
</g>
<defs>
<clipPath id="clip0_3195_913">
<rect width="316.1" height="342.4" fill="white"/>
</clipPath>
</defs>
</svg>
