<svg width="582" height="581" viewBox="0 0 582 581" fill="none" xmlns="http://www.w3.org/2000/svg">
<path d="M251.983 1.6554C130.517 18.722 33.0501 108.455 6.65009 227.522C-2.28324 267.522 -2.14991 312.722 6.65009 353.522C29.4501 457.789 111.45 543.389 215.45 571.522C245.45 579.655 291.717 583.122 322.65 579.655C386.65 572.322 445.183 544.989 491.183 500.855C517.317 475.789 535.583 451.255 550.783 420.855C571.317 379.655 579.85 345.255 580.917 298.055C582.117 247.389 575.05 212.589 554.25 166.855C532.517 118.855 489.317 70.4554 442.65 41.7887C429.45 33.7887 402.383 20.8553 387.45 15.6554C373.583 10.722 354.783 5.92206 337.983 2.85535C320.783 -0.344604 270.65 -1.01129 251.983 1.6554ZM330.65 17.6554C431.317 32.1887 514.517 100.189 550.117 196.989C561.183 226.989 565.85 254.989 565.85 290.855C565.85 335.789 557.317 372.989 537.983 412.055C499.85 488.855 429.05 543.522 345.983 560.189C240.65 581.389 135.05 540.989 69.7168 454.722C30.7834 403.255 11.4501 336.855 16.1168 271.389C24.9168 146.989 114.383 44.8553 236.25 20.1887C267.183 14.0554 299.45 13.1221 330.65 17.6554Z" fill="#272727"/>
<path d="M293.799 36.8667C288.733 38.2 285.266 43.9333 286.333 48.8667C286.999 52.2 288.733 53.9333 294.466 57.2667C300.199 60.4667 301.666 61.9333 301.399 64.2C301.133 66.3333 299.933 67.1333 296.066 67.4C293.399 67.6667 289.933 67.1333 288.333 66.3333C285.933 65.1333 285.666 65.2667 285.666 68.3333C285.666 70.7333 286.599 72.0667 289.133 73C297.266 76.2 306.333 73.5333 309.399 67.1333C312.066 61.6667 309.533 56.7333 301.666 52.4667C298.199 50.6 294.999 48.0667 294.599 47.1333C293.266 43.8 297.266 41.9333 303.666 42.7333C309.266 43.5333 309.666 43.4 309.666 40.4667C309.666 38.0667 308.733 37.1333 305.533 36.4667C300.599 35.5333 298.199 35.5333 293.799 36.8667Z" fill="#272727"/>
<path d="M252.733 39.2668C250.333 39.6668 249.533 41.2668 248.2 47.4001C247.4 51.5334 245.666 60.0668 244.2 66.3334C242.866 72.4668 241.933 77.6668 242.066 77.8001C242.2 77.9334 244.333 77.6668 246.733 77.4001C250.466 76.7334 251 76.2001 251 72.8668C251 68.6001 251.533 68.3334 260.066 67.1334C265.266 66.3334 265.8 66.6001 267 69.6668C268.6 73.6668 270.866 74.8668 274.6 73.4001C277.266 72.3334 277 71.6668 268.6 55.6668C259.8 39.2668 258.6 38.0668 252.733 39.2668ZM261.666 59.2668C261.666 60.7334 254.066 63.1334 252.866 62.0668C252.6 61.6668 253 57.9334 253.933 53.6668L255.4 45.9334L258.466 51.8001C260.2 55.0001 261.533 58.3334 261.666 59.2668Z" fill="#272727"/>
<path d="M323.8 40.4668C322.333 44.0668 322.866 44.6001 328.466 45.5334C333.266 46.3334 333.8 46.7334 333.133 49.4001C331.533 55.2668 328.066 75.8001 328.466 76.3334C328.733 76.4668 330.466 77.0001 332.333 77.2668C335.533 77.6668 335.666 77.2668 338.466 63.0001L341.133 48.3334L346.733 48.8668C351.533 49.1334 352.333 48.8668 352.333 46.6001C352.333 43.8001 347.933 42.2001 335 40.3334C331.666 39.9334 328.066 39.1334 326.866 38.8668C325.666 38.4668 324.333 39.2668 323.8 40.4668Z" fill="#272727"/>
<path d="M363.4 51.1333C364.466 55.8 357.933 77 355.533 77C354.2 77 352.333 79.8 352.333 81.6667C352.333 81.9333 355.133 83 358.6 84.2C363.533 85.9333 365 85.9333 365.933 84.7333C367.266 82.4667 367.266 81.2667 365.8 80.3333C363.933 79.2667 371.533 57.8 373.933 57.2667C375.133 57 376.333 55.6667 376.733 54.2C377.533 51.4 374.6 49.6667 366.466 48.0667C362.733 47.2667 362.6 47.4 363.4 51.1333Z" fill="#272727"/>
<path d="M204.733 51.4001C203.667 52.0667 204.867 57.1334 208.6 69.0001C211.667 78.2001 214.333 85.9334 214.6 86.2001C215.533 87.2667 235 80.4667 235 79.1334C234.867 75.0001 232.867 74.2001 227 76.3334C223.8 77.4001 220.733 77.9334 220.2 77.4001C219.8 76.7334 217.4 70.4667 215 63.2667C210.733 50.3334 209.267 48.6001 204.733 51.4001Z" fill="#272727"/>
<path d="M179.533 63.0001C173.399 64.8668 165.666 69.0001 165.666 70.6001C165.666 71.5334 180.066 101 180.999 102.067C181.399 102.467 186.866 100.067 188.199 98.8668C188.466 98.6001 187.266 96.2001 185.533 93.5334L182.466 88.6001L185.533 86.4668C195.266 79.8001 197.533 72.6001 192.333 66.0668C188.999 61.6668 186.199 61.0001 179.533 63.0001ZM185.399 70.6001C187.933 73.1334 187.266 77.9334 184.066 80.2001C179.933 83.1334 179.666 83.0001 176.999 76.8668C174.866 72.2001 174.733 71.2668 176.466 70.2001C179.133 68.6001 183.533 68.7334 185.399 70.6001Z" fill="#272727"/>
<path d="M389.666 63.2668C384.333 66.0668 379.399 72.7334 378.199 79.0001C376.999 85.4001 380.866 92.3334 387.666 96.3334C394.333 100.333 398.466 100.6 400.199 97.1334C401.799 94.2001 400.866 93.0001 396.999 93.0001C395.399 93.0001 392.466 91.8001 390.466 90.2001C385.133 85.9334 386.066 75.5334 392.199 70.7334C395.666 68.0668 403.533 68.7334 407.666 71.8001C410.599 74.2001 411.533 74.4668 412.466 72.8668C414.466 69.6668 413.799 67.9334 408.999 65.0001C402.466 61.0001 395.399 60.3334 389.666 63.2668Z" fill="#272727"/>
<path d="M440.733 96.6001C437.933 100.2 433.133 105.933 430.067 109.533C423.8 116.6 423.267 118.467 426.467 121.133C428.333 122.733 429.267 122.2 433.533 117.4L438.333 111.8L442.867 115.267C446.867 118.333 447.4 118.467 449.267 116.6C451.267 114.733 451 114.2 447.267 111C442.333 106.867 442.2 106.6 445.8 102.467L448.467 99.2667L453.533 103.4C458.467 107.4 458.733 107.4 460.867 105.133C462.867 103 462.467 102.333 455.267 96.6001C451.133 93.1334 447.267 90.3334 446.733 90.3334C446.2 90.3334 443.533 93.1334 440.733 96.6001Z" fill="#272727"/>
<path d="M131.133 93.5334C129.799 95.0001 130.066 99.6668 132.333 114.6C135.799 137.933 135.799 138.067 138.333 135.533C139.933 133.933 139.799 130.867 137.133 113.4C135.533 102.2 133.799 92.7334 133.399 92.3334C132.999 91.9334 131.933 92.4668 131.133 93.5334Z" fill="#272727"/>
<path d="M260.333 95.0002C224.333 100.733 190.467 116.6 162.067 141C129.133 169.133 106.333 208.2 96.7334 253.133C93.4001 269 93.4001 311.667 96.7334 327.667C104.067 361.8 119.267 393.267 140.733 418.334C172.733 455.934 215.533 479.267 265.533 486.467C281.533 488.734 317.533 487.267 333 483.8C372.067 474.734 402.067 458.2 430.467 429.8C459.533 400.6 476.467 369.4 485.267 328.867C488.6 313.534 488.6 267.934 485.4 252.333C477.133 212.6 459.267 179.667 430.467 151C400.2 120.733 365.4 102.6 324.6 95.5335C306.733 92.4668 277.8 92.3335 260.333 95.0002ZM318.6 103.133C387.133 113.267 444.6 159.667 468.467 224.067C479.667 254.2 483.133 289.8 477.8 320.867C470.733 362.067 453.933 394.867 424.867 424.2C358.333 491.134 252.6 498.334 176.6 441C140.6 413.934 115.267 373.4 105.4 327.267C101.267 307.667 101.267 272.734 105.4 253.4C113.8 214.733 130.6 183.8 158.2 156.333C183.933 130.733 210.467 115.533 244.333 107C268.467 100.867 294.467 99.5335 318.6 103.133Z" fill="#272727"/>
<path d="M271 116.467C242.6 121.667 235.133 123.933 217.8 131.933C176.6 150.733 141.8 188.6 126.6 231.133C119.933 249.667 117.133 266.6 117.133 288.6C117 299.667 117.4 309.133 117.933 309.667C119.533 311.267 151.133 295 176.867 279.267C196.733 267 219.933 264.733 236.733 273.267C253.133 281.533 269.667 307.267 269.667 324.333V328.733L260.6 319.667C254.6 313.667 248.333 309 241.667 305.667C232.733 301.133 230.467 300.6 219.667 300.2C208.067 299.8 207.8 299.8 213.133 301.533C242.2 311.267 260.467 329 262.6 349.4L263.4 356.733L256.733 358.867C239.667 364.6 223.267 364.067 210.467 357.667C206.733 355.8 195.267 347.933 185 340.333C157.267 319.667 140.333 311.8 123.4 311.667C116.333 311.667 116.333 311.533 121.533 332.2C139.4 402.6 197.133 454.2 269 463.8C283.8 465.667 311.933 464.733 325.933 461.8C391.4 447.933 444.067 398.067 460.2 334.733C464.467 318.333 464.2 317.4 456.733 316.2C443.133 314.2 433.133 319.133 396.067 346.467C361.4 372.067 351 376.333 325 375.4C313 375 308.2 374.067 298.733 370.733C292.467 368.6 284.467 365.133 281.133 363.133L274.867 359.533L278.467 353C289.533 332.733 312.2 314.867 339 305.533L347.667 302.467H341.533C327.267 302.2 303.933 310.733 290.067 321.267C285.4 324.733 281.667 327 281.667 326.2C281.667 325.4 283.267 322.067 285.133 318.6C297.8 295.933 316.6 280.467 339.667 273.667C370.333 264.6 420.733 279.4 454.333 307.267L464.067 315.4L464.867 310.467C466.2 302.6 465.8 276.333 464.2 265.933C457.8 223 438.2 187.133 405.8 158.733C383 138.733 358.2 126.467 325.667 118.867C317.267 117 277.933 115.133 271 116.467ZM365.667 172.733C365.667 173.4 364.067 175 361.933 176.6C352.6 183.533 346.733 197 339.667 227.8C334.333 251.133 331.133 257.933 320.467 268.733C310.733 278.733 287.933 295.667 284.467 295.667C283.8 295.667 282.2 292.6 280.867 288.733C277.8 279.133 278.867 258.867 283.533 244.333C285.4 238.6 286.6 233.4 286.2 233.133C285.133 231.933 280.6 238.333 276.467 247C272.333 255.667 269 269.533 267.667 283.933C267.133 289 266.333 293 265.933 293C264.6 293 256.733 281 254.467 275.533C247.667 259.267 251.667 241 266.333 220.333C285 194.067 318.2 176.2 355 172.6C364.2 171.667 365.667 171.667 365.667 172.733Z" fill="#272727"/>
<path d="M143.666 107C139.266 111.267 139.533 115 144.2 119.8C148.866 124.333 150.733 124.6 155.533 120.867C160.066 117.267 160.066 111.8 155.533 107.133C151.133 102.867 147.8 102.733 143.666 107ZM153 111.667C155.666 114.733 154.866 118.333 151.266 118.333C147.933 118.333 145.666 115.8 145.666 112.067C145.666 108.2 149.666 107.933 153 111.667Z" fill="#272727"/>
<path d="M114.466 107.8C108.733 112.333 110.333 121.133 117.399 123.8C124.733 126.6 131.399 118.867 127.666 111.667C125.799 107.933 122.066 105 119.266 105C118.599 105 116.466 106.2 114.466 107.8ZM122.733 111.933C124.733 113.933 124.866 117.933 122.999 119C119.399 121.267 113.399 115.267 115.666 111.667C116.733 109.8 120.733 109.933 122.733 111.933Z" fill="#272727"/>
<path d="M459.933 127.267C446.867 138.733 446.867 138.733 449.533 141.4C452.067 144.067 452.2 144.067 457.667 139.667C462.2 136.067 463.533 135.667 464.467 137.133C465.933 139.533 466.067 139.4 463.533 147.533C461.667 153.933 461.667 154.867 463.667 157.933C464.867 159.8 466.333 160.733 466.867 160.2C468.333 158.6 471 148.6 471 145.133C471 142.6 471.533 142.333 476.067 143.133C480.333 143.8 481.533 143.4 484.733 140.333C488.733 136.333 489.133 134.333 486.733 129.933C484.2 125 476.067 115.667 474.467 115.8C473.667 115.8 467.133 121 459.933 127.267ZM477.933 127.267C482.733 131.533 479.4 138.067 473.133 136.467C468.6 135.267 467.667 131.8 471.133 128.067C474.733 124.467 474.733 124.333 477.933 127.267Z" fill="#272727"/>
<path d="M95.5333 129.133C91.1333 131.4 87.9333 137.8 88.8667 143C89.8 148.067 99.2667 157.4 106.467 160.467C116.467 164.6 126.733 154.6 122.6 144.6C120.467 139.533 112.333 132.067 106.2 129.533C101.133 127.4 99.4 127.4 95.5333 129.133ZM108.067 139.667C117.667 146.6 120.467 154.333 113.4 154.333C107.533 154.333 95 143.667 95 138.733C95 134.2 101.267 134.733 108.067 139.667Z" fill="#272727"/>
<path d="M486.733 159.4C478.866 164.333 472.333 168.867 472.333 169.4C472.199 169.933 474.466 174.333 477.266 179C482.199 187 482.733 187.533 485.133 185.8C487.533 183.933 487.533 183.8 484.466 178.2C481.399 172.867 481.399 172.467 483.666 170.733C487.399 168.067 489.399 168.6 491.666 173C493.799 177.133 494.599 177.533 498.199 176.2C500.199 175.4 500.066 174.867 497.666 170.733C494.199 164.733 494.333 163.133 498.333 161.267C501.399 159.8 501.799 160.067 504.599 165C506.333 167.933 507.933 170.333 508.333 170.333C510.599 170.333 512.466 167.667 511.799 165.4C510.599 161.667 503.266 150.333 502.066 150.467C501.399 150.467 494.599 154.467 486.733 159.4Z" fill="#272727"/>
<path d="M73.7997 159.267C66.4663 165.4 68.4663 175.533 78.1997 182.2C86.1997 187.667 92.9997 189.667 97.533 187.8C101.4 186.067 105.666 180.067 105.666 176.067C105.666 171.533 100.466 165.133 93.3997 161.133C85.2663 156.467 78.0663 155.8 73.7997 159.267ZM86.0663 165.8C97.2663 171.533 102.333 178.467 96.8663 180.6C91.3997 182.6 74.9997 173 74.9997 167.667C74.9997 163.4 79.7997 162.6 86.0663 165.8Z" fill="#272727"/>
<path d="M505.666 189.267C497.266 192.867 489.8 196.333 489.133 197C488.066 198.067 494.466 217 495.933 217C496.2 217 497.666 216.333 499 215.667C501.533 214.333 501.533 214.2 498.866 208.067C497.4 204.733 496.466 201.8 496.6 201.8C496.866 201.667 498.733 200.867 500.733 199.933C504.466 198.333 504.6 198.467 506.6 203.667C508.733 209 510.2 209.933 513.4 207.933C514.733 207 514.6 205.8 513 201.667C510.733 196.467 511.133 195.133 515.8 193.8C518.066 193.133 519 193.933 521 198.333C523.533 203.8 524.066 204.2 527.4 202.867C529.133 202.2 528.866 200.6 525.4 192.6C523.133 187.267 521.266 182.867 521.133 182.867C521.133 182.733 514.066 185.667 505.666 189.267Z" fill="#272727"/>
<path d="M55.4001 199.267C54.6001 203.533 54.0668 207.133 54.2001 207.133C54.2001 207.267 55.6668 207.8 57.4001 208.2C59.9334 209 60.3334 208.733 60.3334 205.8C60.3334 201.667 61.5334 201.533 71.0001 205.133C82.6001 209.533 83.1334 209.933 81.6668 213.667C80.6001 216.333 80.8668 217.267 83.0001 218.333C84.6001 219.133 85.8001 219.133 86.3334 218.467C87.5334 216.333 93.6668 199.667 93.6668 198.333C93.6668 195.8 88.4668 197 87.6668 199.667C87.2668 201.133 86.3334 202.333 85.6668 202.333C85.0001 202.333 78.3334 199.933 71.0001 197C63.6668 194.067 57.4001 191.667 57.1334 191.667C57.0001 191.667 56.2001 195.133 55.4001 199.267Z" fill="#272727"/>
<path d="M51.9326 278.867L49.5326 286.333H41.9326C34.466 286.333 34.466 286.333 37.666 288.6C39.5326 289.8 42.3326 291.933 43.7993 293.267C46.7326 295.8 46.7326 295.8 44.1993 302.467C42.866 306.067 42.066 309 42.466 309C42.866 309 45.7993 307.133 48.9993 304.867L54.866 300.6L60.066 304.867C62.9993 307.133 65.666 309 66.066 309C66.466 309 65.7993 305.933 64.5993 302.2C62.1993 294.733 62.066 295 71.1326 288.733C74.3326 286.467 74.3326 286.467 67.266 286.467C60.3326 286.333 60.1993 286.2 58.1993 281.267C57.1326 278.6 55.7993 275.267 55.266 273.8C54.466 271.933 53.666 273.133 51.9326 278.867Z" fill="#272727"/>
<path d="M525.267 278.867L522.867 286.333H515.933H509L514.6 291L520.067 295.667L517.667 302.333C516.333 306.067 515.667 309 516.2 309C516.733 309 519.133 307.267 521.667 305C524.2 302.867 526.867 301.133 527.533 301C528.067 301 531 302.867 533.933 305.133C536.733 307.4 539.4 309.133 539.667 308.867C539.933 308.6 539.267 305.933 538.2 303C535.533 295.4 535.667 295 541.933 290.467L547.533 286.333H540.467C533.667 286.333 533.533 286.2 531.533 281.267C530.467 278.6 529.133 275.267 528.6 273.8C527.8 271.933 527 273.133 525.267 278.867Z" fill="#272727"/>
<path d="M90.1994 393.533C87.7994 395.4 87.7994 395.533 90.3327 398.467C91.7994 400.067 92.466 401.667 91.666 401.8C90.9994 402.067 86.466 404.733 81.666 407.667L72.9994 412.867L70.3327 409.8C68.1994 407.267 67.1327 406.867 65.5327 408.067C63.666 409.267 63.9327 410.467 68.7327 418.867C75.266 430.467 74.5994 429.933 77.1327 427.4C78.866 425.667 78.9994 424.733 77.666 422.333C76.866 420.733 76.3327 419.267 76.5994 419.133C76.866 418.867 82.5994 415.533 89.3994 411.667C96.1994 407.8 101.933 404.2 102.199 403.8C102.466 403.4 100.466 400.467 97.666 397.4C93.266 392.333 92.466 391.933 90.1994 393.533Z" fill="#272727"/>
<path d="M482.2 399.933C481.666 400.867 479.266 404.733 476.866 408.467L472.6 415.133L487.4 424.467C495.533 429.533 502.6 433.8 503.133 434.067C503.933 434.467 515 418.067 515 416.467C515 416.067 513.8 415.133 512.466 414.333C510.2 413.267 509.4 413.933 506.333 419C503 424.867 502.866 425 499.666 422.867C495.933 420.467 495.4 416.733 498.333 414.333C500.866 412.2 500.866 409.8 498.466 407.667C496.866 406.467 495.933 407 493.4 410.867C490.066 416.067 488.733 416.6 485 413.8C482.466 411.933 482.466 411.8 485.533 406.333C488.066 401.667 488.333 400.467 486.866 399.533C484.333 397.933 483.266 398.067 482.2 399.933Z" fill="#272727"/>
<path d="M99.6666 422.2C96.7333 423.533 92.0666 427.133 89.3999 430.067C83.2666 436.867 82.8666 441.667 87.7999 447.533C90.5999 451 92.1999 451.667 96.7333 451.667C102.733 451.533 105.667 450.333 111.8 445C121.4 436.733 122.867 429.8 116.2 423.533C111.4 419 107.267 418.733 99.6666 422.2ZM113.4 429.533C114.333 434.2 101.533 445 94.9999 445C88.1999 445 90.7333 437.8 100.067 431C106.867 425.933 112.6 425.267 113.4 429.533Z" fill="#272727"/>
<path d="M462.466 428.6C459 432.733 456.466 436.467 456.6 437.133C457.133 438.467 483.133 459.667 484.2 459.533C484.6 459.533 487.933 455.8 491.533 451.4C497.8 443.667 497.933 443.133 495.533 441.4C493.266 439.667 492.6 439.933 489.266 444.333C484.866 449.667 483 450.067 479.666 446.333C477.266 443.667 477.266 443.533 481 439.667C484.733 435.8 484.733 435.533 482.466 433.267C480.333 431.133 480.066 431.267 476.6 435.4C472.466 440.333 471 440.6 467.666 437C465.266 434.333 465.266 434.2 467.8 431.267C473.533 424.867 473.666 424.333 471 422.733C468.866 421.267 467.8 422.067 462.466 428.6Z" fill="#272727"/>
<path d="M122.333 444.867C116.467 447.4 108.867 455.267 106.867 460.734C105.133 465.4 106.2 469.134 110.467 473.4C116.467 479.4 124.733 477.667 133.133 468.734C138.333 463.267 140.333 459.534 140.333 455C140.333 449.8 137.933 446.334 133 444.2C127.533 441.934 128.733 441.934 122.333 444.867ZM133.4 453.267C133.8 456.2 132.467 458.334 127.133 463.667C119 471.8 113.667 472.867 113.667 466.334C113.667 463.134 115.267 460.6 120.333 455.534C128.067 447.8 132.733 447 133.4 453.267Z" fill="#272727"/>
<path d="M445.533 448.067C438.2 453.667 432.333 459.133 432.333 460.067C432.333 460.733 437.8 467.133 444.466 474.333L456.466 487.533L459.266 484.733C462.066 481.933 462.066 481.933 455.4 474.6C452.866 471.933 453.266 469 456.2 469C457.666 469 461.8 469.667 465.4 470.467C471.4 471.933 472.333 471.8 475.666 469.267L479.133 466.467L474.066 465.133C471.266 464.333 466.733 463.267 464.066 462.867C459.4 462.067 459.266 461.8 459.933 457.667C461.266 449.8 451.666 443.4 445.533 448.067ZM452.333 456.333C454.333 458.733 453 464.867 450.2 465.933C448.866 466.333 446.733 465.267 444.6 463.267C441.266 459.8 441.266 459.667 443.666 457C446.466 453.8 450.066 453.533 452.333 456.333Z" fill="#272727"/>
<path d="M143.667 464.334C139.667 468.2 139.4 473.4 143 477C146.867 480.867 152.867 480.467 156.2 476.2C159.8 471.534 159.8 467.534 155.933 463.934C151.933 460.067 147.667 460.2 143.667 464.334ZM153.667 469.534C153.667 473 151.267 475.667 148.2 475.667C145.267 475.667 143.933 472.2 145.667 469C148.2 464.2 153.667 464.6 153.667 469.534Z" fill="#272727"/>
<path d="M418.999 469.267C414.999 472.067 411.533 475 411.266 475.667C410.599 477.533 429.799 505 431.666 505C432.599 505 434.066 504.067 434.999 503C436.333 501.4 436.066 499.933 432.999 495.4L429.266 489.8L432.333 487.4C434.066 486.067 436.333 484.333 437.533 483.667C439.399 482.6 439.399 482.2 437.399 480.2C435.133 477.933 434.866 477.933 431.133 480.733C426.066 484.467 425.133 484.467 422.333 480.2C420.066 476.733 420.066 476.6 423.799 473.533C425.933 471.8 428.066 470.467 428.733 470.333C430.333 470.333 429.799 466.733 428.066 465.4C426.866 464.467 424.199 465.667 418.999 469.267Z" fill="#272727"/>
<path d="M151.4 483.267C140.866 487.4 132.333 491.267 132.333 491.933C132.333 495.133 138.066 493.933 155.666 486.867C173.133 479.933 177.8 476.867 172.2 476.067C171.133 475.933 161.8 479.133 151.4 483.267Z" fill="#272727"/>
<path d="M381.666 490.733C373.666 494.867 370.6 499.533 370.6 506.733C370.733 513.4 373.133 518.867 378.2 523.533C382.6 527.667 391 527.933 398.333 524.333C403.8 521.533 405.266 519.133 403.133 515.8C402.2 514.2 401.266 514.467 398.333 516.867C392.066 521.667 384.2 520.467 381 514.2C376.2 505.133 379.933 496.6 389.266 494.867C394.2 493.933 394.2 493.933 392.333 490.2C390.466 486.867 388.733 487 381.666 490.733Z" fill="#272727"/>
<path d="M151.666 493.667C147.533 497.667 147.4 502.733 151.266 506.333C155.133 509.933 159.8 509.667 163.666 505.667C167.8 501.667 167.933 496.6 164.066 493C160.2 489.4 155.533 489.667 151.666 493.667ZM161.4 498.467C161.8 502.333 158.733 505.667 155.666 504.467C153.266 503.533 153 498.2 155.266 495.933C157.8 493.4 161 494.6 161.4 498.467Z" fill="#272727"/>
<path d="M193.133 507.8C187 523.267 186.866 524.2 189.133 525.933C192.733 528.6 193.533 528.2 195.8 522.467L197.8 517.267L205.8 517.933C212.733 518.6 214.2 518.333 217 515.667C224.466 508.733 222.066 500.067 211.4 495.533C199.133 490.333 200.2 489.533 193.133 507.8ZM212.066 503.4C214.2 506.2 214.066 506.867 211.266 510.333C209.533 512.6 208.066 513 205.266 512.333C201.266 511.267 201 510.067 203.133 503.8C204.333 500.333 205.133 499.667 207.533 500.467C209 500.867 211.133 502.2 212.066 503.4Z" fill="#272727"/>
<path d="M352.733 501.267C350.333 502.067 348.333 503.4 348.333 504.2C348.333 506.467 350.466 509.267 351.666 508.733C353.533 508.067 359 527.933 358.2 532.467C357.133 537.933 358.733 538.733 366.066 536.2C370.866 534.6 371.933 533.667 371.4 531.533C371 530.2 369.8 529 368.866 529C367.8 529 367 528.867 367 528.6C367 528.333 365.533 523.133 363.666 517C361.533 509.667 360.866 505.533 361.666 505C363.8 503.667 361.8 499.667 359.133 499.8C357.933 499.933 355 500.6 352.733 501.267Z" fill="#272727"/>
<path d="M228.466 506.6C226.733 512.467 221.666 534.067 221.666 536.2C221.666 537.134 225.799 538.867 231.399 540.067C243.399 542.867 243.266 543 242.733 539.4C242.466 537.134 240.999 536.067 236.599 535C233.399 534.334 230.733 533.4 230.599 533C230.466 532.6 231.799 526.2 233.666 518.6C236.333 506.734 236.599 504.6 234.866 503.534C231.533 501.4 229.933 502.2 228.466 506.6Z" fill="#272727"/>
<path d="M331.399 506.733C318.733 509 317.666 509.533 317.666 512.333C317.666 515.133 318.199 515.267 323.399 514.733L328.999 514.067L331.399 527.8C332.733 535.4 334.199 542.067 334.733 542.6C336.066 543.933 341.666 542.333 341.666 540.467C341.666 539 338.199 520.067 336.999 514.867C336.466 512.467 337.133 511.933 341.666 511.133C346.733 510.333 348.066 508.6 345.933 505.533C345.266 504.467 340.999 504.867 331.399 506.733Z" fill="#272727"/>
<path d="M257.666 525.133C253.266 534.067 249.666 542.2 249.666 543.133C249.666 544.333 251.133 545 253.533 545C256.599 545 257.666 544.2 258.866 541C260.333 536.733 261.933 536.333 270.333 538.2C273.399 538.867 274.466 539.933 274.999 543C275.533 546.333 276.333 547 280.066 547.4C283.933 547.8 284.466 547.533 283.799 545.4C283.399 544.067 281.533 536.733 279.666 529C274.999 509.933 274.599 509 269.666 509C265.799 509 265.266 509.8 257.666 525.133ZM271.533 526.6L272.466 531.667H267.666C265.133 531.667 262.999 531.267 262.999 530.867C262.999 530.467 264.333 527.133 265.933 523.4C268.999 516.067 269.666 516.467 271.533 526.6Z" fill="#272727"/>
<path d="M299.533 509.933C295.933 510.6 291.399 515.4 290.866 519C290.066 524.333 292.466 527.4 300.066 531.267C305.399 533.8 307.666 535.8 307.666 537.533C307.666 540.867 301.799 542.6 296.066 540.867C290.866 539.4 290.199 540.067 292.066 544.333C293.399 547.267 294.466 547.667 300.866 547.667C306.733 547.667 308.866 547 312.199 544.2C319.666 537.933 317.266 530.467 306.066 525.533C300.066 522.867 298.866 521.8 299.266 519.267C299.666 516.6 300.466 516.333 306.733 516.333C312.999 516.467 313.666 516.2 313.666 513.533C313.666 509.4 308.733 508.067 299.533 509.933Z" fill="#272727"/>
</svg>
