<svg width="315" height="380" viewBox="0 0 315 380" fill="none" xmlns="http://www.w3.org/2000/svg">
<path d="M186.08 0.403809C109.431 0.403809 82.3831 119.422 57.1859 215.162C48.0716 205.956 20.0236 177.998 19.995 178.043C14.3546 172.459 7.87568 174.275 3.90639 178.145C-0.0876639 182.165 -0.670766 189.538 3.90639 194.011C4.13696 194.21 41.9109 231.854 54.9659 244.903C58.5674 248.406 63.7791 250.469 68.987 247.428C74.3836 244.108 75.1229 238.243 75.2696 238.243C120.022 37.8417 160.016 22.8979 185.975 22.8979C207.813 22.8979 232.98 39.0164 232.98 71.261C265.546 71.261 285.956 114.028 259.747 140.353C281.476 150.86 291.168 163.781 291.168 180.131C291.168 196.498 277.455 213.206 257.439 213.163C237.591 213.163 227.505 200.415 212.041 200.36C205.029 200.36 200.776 206.023 200.776 211.608V252.067H171.579V211.759C171.497 205.442 166.845 200.474 161.05 200.474C160.957 200.474 158.552 200.545 158.588 200.627L119.484 205.442C114.768 206.155 110.412 211.274 110.412 216.559C110.412 222.755 115.492 227.9 122.421 227.814C123.303 227.814 124.488 227.814 124.372 227.713C124.302 227.713 149.125 224.561 149.125 224.561V264.496C149.125 269.548 154.859 274.504 160.012 274.504H211.959C218 274.504 223.25 269.292 223.25 263.174V226.704C234.119 233.33 249.24 235.895 256.995 235.895C286.137 235.895 313.932 213.008 313.85 179.43C313.735 148.994 290.425 133.792 290.425 133.792C304.107 97.3841 281.977 62.2343 253.32 52.4589C242.988 14.9045 210.888 0.403809 186.08 0.403809ZM153.363 319.038C153.363 328.446 163.869 334.123 181.179 342.349C194.908 348.765 202.805 355.566 202.805 361.035C202.805 369.872 193.3 373.003 184.388 373.003C170.601 373.003 162.462 367.512 157.948 355.186L157.554 354.145H156.441C154.019 354.145 152.089 354.26 151.014 355.566C150.055 356.831 150.326 358.487 150.718 360.099C150.688 360.061 153.764 372.737 153.764 372.737C154.585 375.818 155.696 376.319 160.622 377.289C162.781 377.661 173.928 379.594 183.372 379.594C209.713 379.594 221.47 368.902 221.47 358.29C221.47 350.564 213.815 343.182 197.302 334.936L189.8 331.321C178.502 325.942 171.657 322.745 171.657 317.07C171.657 311.575 178.744 307.751 188.853 307.751C202.056 307.751 205.576 315.122 207.194 321.54L207.477 322.745H208.728C211.664 322.745 213.52 322.502 214.604 321.32C215.237 320.648 215.494 319.72 215.342 318.635L214.313 307.686C214.023 304.161 211.344 303.656 207.622 302.9C203.194 302.113 197.9 301.15 189.902 301.15C167.021 301.149 153.363 307.849 153.363 319.038ZM229.229 341.199C229.229 360.259 245.772 379.594 277.455 379.594C293.418 379.594 302.388 375.935 309.086 372.38L310.888 371.429L307.969 368.161L308.129 368.325C307.422 367.351 306.872 367.156 305.797 367.156L304.257 367.687C301.856 368.799 294.531 372.193 281.238 372.193C264.854 372.193 247.227 361.52 247.227 338.013C247.227 315.653 266.361 307.751 282.667 307.751C294.421 307.751 300.669 311.936 301.833 320.61L301.965 322.025H303.426C304.823 322.025 308.539 322.025 308.539 319.242V306.214C308.539 302.999 304.855 302.562 303.321 302.331L301.788 302.111C298.03 301.622 294.426 301.149 284.891 301.149C252.63 301.149 229.229 317.997 229.229 341.199ZM109.897 302.09L81.3713 302.321L62.3633 302.008L59.4725 301.941C57.7785 301.941 56.5609 303.16 56.5609 304.921C56.5609 305.733 56.5609 308.296 59.7088 308.296C71.1975 308.296 71.6205 309.218 71.7253 313.623L71.8358 316.394L72.0149 328.137V353.406C72.0149 357.585 71.8644 364.251 71.5919 369.62C71.5157 371.173 71.4376 372.634 61.2943 372.634C58.4169 372.634 56.7171 373.215 56.7171 375.998C56.7171 376.83 56.7171 378.975 59.4745 378.975H60.1109C61.3228 378.916 64.5375 378.767 80.4128 378.767C97.3227 378.767 100.715 378.943 101.866 378.975H102.46C104.68 378.975 106.61 378.767 106.61 375.998C106.61 372.894 104.046 372.634 99.7561 372.634C89.5671 372.634 89.4851 371.173 89.4108 369.651C89.1688 364.719 88.9611 358.057 88.9611 353.4V344.28H97.5095C110.587 344.28 112.037 344.653 113.911 354.718C114.448 356.911 116.197 357.188 117.655 357.188C120.731 357.188 121.066 355.509 121.066 354.762L120.807 350.98C120.513 348.156 120.37 345.317 120.378 342.477V326.991C120.378 324.67 117.581 324.67 116.089 324.67C113.623 324.67 113.049 326.235 111.483 333.557C110.761 336.335 105.362 337.949 96.671 337.949H88.9611V315.206C88.9611 309.01 90.0549 308.96 91.4174 308.943C96.4214 308.712 108.541 308.294 112.184 308.294C115.65 308.294 118.84 309.088 120.875 310.435C127.36 314.442 130.672 317.173 132.682 318.822C134.649 320.396 135.75 321.326 137.347 321.326C138.296 321.326 141.046 321.326 141.046 318.942C141.046 318.36 140.785 317.827 139.901 315.857C138.854 313.518 137.075 309.686 134.82 303.79C134.167 301.914 132.029 301.914 128.029 301.914L109.897 302.09ZM290.775 23.4365H294.804C296.646 23.4365 297.925 23.1347 298.666 22.6133C299.377 22.0804 299.741 21.3221 299.741 20.327C299.741 19.3873 299.377 18.629 298.706 18.0904C298.026 17.569 296.644 17.2729 294.556 17.2729H290.771L290.775 23.4365ZM304.695 34.9404H300.642C298.108 30.324 296.418 27.734 295.669 27.1266C294.88 26.546 293.923 26.2633 292.74 26.2633H290.779V34.9404H287.467V14.5149H294.565C296.679 14.5149 298.276 14.6677 299.436 14.9962C300.576 15.2617 301.505 15.8996 302.216 16.8852C302.931 17.8345 303.3 18.9232 303.3 20.0405C303.3 21.4367 302.794 22.6878 301.763 23.8357C300.762 24.9836 299.329 25.6215 297.437 25.7705V25.8278C298.639 26.1296 300.252 27.839 302.182 30.9676L304.695 34.9404ZM295.781 40.2999C300.147 40.2999 303.863 38.7719 306.967 35.6548C310.073 32.5319 311.658 28.8074 311.685 24.4049C311.685 20.0424 310.124 16.3065 307.016 13.2237C303.895 10.141 300.149 8.56333 295.781 8.56333C291.412 8.56333 287.65 10.1142 284.582 13.197C281.48 16.3065 279.942 20.0424 279.919 24.4049C279.919 28.7788 281.48 32.5319 284.556 35.6261C287.656 38.7337 291.385 40.2999 295.781 40.2999ZM295.859 5.42138C301.037 5.42138 305.488 7.26835 309.217 10.9585C312.979 14.6944 314.837 19.1791 314.837 24.403C314.837 29.6402 312.973 34.1229 309.263 37.8417C305.543 41.549 301.075 43.4246 295.859 43.4246C290.598 43.4246 286.088 41.5949 282.387 37.8895C278.625 34.1535 276.769 29.6669 276.769 24.403C276.769 19.1791 278.631 14.7231 282.387 10.9871C286.088 7.26835 290.598 5.42138 295.859 5.42138Z" fill="#272727"/>
</svg>
