<svg width="71" height="51" viewBox="0 0 71 51" fill="none" xmlns="http://www.w3.org/2000/svg">
<path d="M11.0571 42.9153C10.3907 42.5527 9.74792 42.083 9.04618 41.423C8.19112 40.662 7.4599 39.7643 6.8584 38.7714H6.24512V45.2935H12.8026V43.7774C12.2306 43.5515 11.6762 43.284 11.1514 42.9629L11.0571 42.9094V42.9153Z" fill="#F49523"/>
<path d="M6.58124 38.3076C6.45741 38.0757 6.35716 37.8438 6.24512 37.6119V38.7713H6.8584C6.76405 38.6167 6.6697 38.4681 6.58124 38.3076Z" fill="#F49523"/>
<path d="M4.99467 26.2859V25.7211H0.0117188V26.3097C0.0176157 27.8912 0.0176157 30.1742 0.100173 32.2492H5.08312C4.99467 30.2099 4.99467 27.802 4.99467 26.2859Z" fill="#DAA8E2"/>
<path d="M5.52532 35.8403C5.50763 35.763 5.48994 35.6857 5.46635 35.6084C5.44276 35.5014 5.41328 35.3944 5.38379 35.2814C5.372 35.2338 5.35431 35.1803 5.34251 35.1387L5.21868 34.3539C5.15381 33.7534 5.11253 33.0221 5.07715 32.2433H0.100098C0.141377 33.3016 0.200346 34.3123 0.300595 35.1328L0.312389 35.2279C0.33008 35.5014 0.477504 36.1673 0.506989 36.2802L1.04361 38.1055C1.12617 38.3255 1.22052 38.5455 1.31488 38.7654H6.25065V37.6061C5.97349 37.0234 5.72582 36.4348 5.53122 35.8343" fill="#E52629"/>
<path d="M12.8022 43.7774V45.2935H17.1011V44.6217C15.621 44.6098 14.1644 44.3185 12.8022 43.7715" fill="#8EC045"/>
<path d="M0.011794 25.7211H4.98885L4.97705 24.5083L5.01243 19.2406L6.2449 19.2465V19.199H0.0353819L0 24.5201L0.011794 25.7211Z" fill="#A05CBF"/>
<path d="M5.87939 45.2994C6.00323 45.4124 6.12117 45.5194 6.24501 45.6205V45.2994H5.87939Z" fill="#8EC045"/>
<path d="M12.8023 49.0569C14.1881 49.4315 15.621 49.6336 17.0658 49.6396L17.0953 45.2935H12.7964V49.0569H12.8023Z" fill="#2C8939"/>
<path d="M12.8023 19.1989V14.288L4.98877 14.2285V19.1989H12.8023Z" fill="#64328A"/>
<path d="M6.24485 38.7714H1.30908C1.57445 39.4313 1.8693 40.0794 2.21722 40.7155C3.14304 42.4159 4.33423 43.9201 5.70823 45.1389C5.7672 45.1924 5.82617 45.24 5.87924 45.2935H6.24485V38.7714Z" fill="#F9B041"/>
<path d="M6.24512 19.199V19.2465L12.8026 19.306V19.199H6.24512Z" fill="#64328A"/>
<path d="M17.3311 19.199L17.3665 14.3238L12.8022 14.2881V19.199H17.3311Z" fill="#DB1F5D"/>
<path d="M6.24467 45.2994V45.6205C7.02307 46.2923 7.81326 46.8512 8.64474 47.309C9.94207 48.0819 11.3456 48.6705 12.7962 49.0629V45.2994H6.23877H6.24467Z" fill="#48AE4D"/>
<path d="M12.8022 19.306L17.3252 19.3417L17.3311 19.199H12.8022V19.306Z" fill="#DB1F5D"/>
<path d="M34.5209 38.4503C34.9219 38.2363 35.3052 37.9509 35.7238 37.5585C36.2369 37.1007 36.6733 36.5656 37.033 35.9711H37.3986V39.8832H33.4712V38.9735C33.8132 38.8368 34.1434 38.6762 34.4619 38.486L34.515 38.4563L34.5209 38.4503Z" fill="#F49523"/>
<path d="M37.2042 35.6916C37.2808 35.5548 37.3398 35.4121 37.4047 35.2754V35.971H37.0391C37.0921 35.8759 37.1511 35.7867 37.2042 35.6916Z" fill="#F49523"/>
<path d="M38.1537 28.4857V28.1469H41.1375V28.4976C41.1375 29.4489 41.1375 30.8164 41.0845 32.053H38.1006C38.1537 30.8282 38.1537 29.3894 38.1537 28.4798" fill="#225D38"/>
<path d="M37.8348 34.2112C37.8466 34.1636 37.8584 34.1161 37.8702 34.0685C37.8879 34.0031 37.8997 33.9377 37.9174 33.8723C37.9233 33.8426 37.9351 33.8129 37.941 33.7891L38.0176 33.3194C38.053 32.9567 38.0825 32.5227 38.1002 32.059H41.0841C40.9897 34.5382 40.4118 35.8343 40.3587 35.9711H37.3984V35.2754C37.5636 34.9247 37.7169 34.5739 37.8289 34.2112" fill="#005640"/>
<path d="M33.4774 38.9675V39.8772H30.9004V39.4788C31.7849 39.4729 32.6636 39.2945 33.4774 38.9735" fill="#8EC045"/>
<path d="M41.1376 28.1469H38.1596L38.1655 27.4215L38.1419 24.2645L37.4048 24.2704V24.2407H41.1258L41.1494 27.4275L41.1376 28.1469Z" fill="#009D4F"/>
<path d="M37.623 39.8772C37.5522 39.9426 37.4755 40.008 37.4048 40.0734V39.8772H37.623Z" fill="#8EC045"/>
<path d="M41.108 21.2323L38.1006 21.262V24.2645H41.1257L41.108 21.2323Z" fill="#4D266C"/>
<path d="M33.4774 42.1305C32.6459 42.3564 31.7908 42.4754 30.9181 42.4813L30.9004 39.8772H33.4774V42.1305Z" fill="#2C8939"/>
<path d="M37.4048 35.9651H40.3651C40.2058 36.3575 40.0289 36.7499 39.8225 37.1304C39.2682 38.153 38.5547 39.0507 37.7291 39.782C37.6937 39.8118 37.6584 39.8415 37.623 39.8712H37.4048V35.9591V35.9651Z" fill="#F9B041"/>
<path d="M33.4771 21.2978V24.2408V24.3002L38.1003 24.2705V24.2408V21.2621L33.4771 21.2978Z" fill="#64328A"/>
<path d="M37.4044 39.8772V40.0734C36.9386 40.4717 36.4668 40.8106 35.9656 41.0841C35.1872 41.5479 34.3498 41.8986 33.4771 42.1365V39.8831H37.4044V39.8772Z" fill="#48AE4D"/>
<path d="M30.7407 21.3156L30.7643 24.2407V24.324L33.4769 24.3002V24.2407V21.2977L30.7407 21.3156Z" fill="#DB1F5D"/>
<path d="M25.9999 19.2762C26.0883 18.86 26.2004 18.3903 26.336 18.0158L26.3891 17.8552C26.6721 16.8802 27.1557 15.8041 27.8928 14.4842L28.1346 14.1215C28.3705 13.7113 28.6299 13.3129 28.8953 12.9205H25.5576V20.9766C25.6579 20.501 25.7876 19.9897 25.9527 19.4665L25.9999 19.2762Z" fill="#0E62AD"/>
<path d="M25.5577 45.6799L25.3572 45.6858L25.2924 36.2207H20.333L20.3802 42.5764L20.4215 47.85V47.8738H25.5577V45.6799Z" fill="#F9B041"/>
<path d="M25.5573 9.03223C24.9971 9.76946 24.4664 10.5245 23.9946 11.3272L23.7411 11.7017C23.4993 12.1239 23.2752 12.5341 23.0747 12.9265H25.5573V9.03223Z" fill="#0E4D85"/>
<path d="M25.2212 24.6628C25.2212 24.6628 25.2212 24.6033 25.2212 24.5736H20.2383L20.3267 36.2267H25.292L25.2153 24.6687L25.2212 24.6628Z" fill="#285896"/>
<path d="M25.2331 24.3298C25.2449 24.0623 25.2566 23.765 25.2861 23.5867L25.3333 23.3132L25.3215 23.0337C25.2979 22.5046 25.3805 21.7911 25.5515 20.9766V12.9205H23.0689C22.4202 14.1691 21.9543 15.2928 21.6359 16.3629C21.4295 16.9515 21.2762 17.558 21.1582 18.0931C20.7573 19.4248 20.315 21.3036 20.3386 23.004C20.2855 23.4023 20.2678 23.7888 20.256 24.1158L20.2324 24.532V24.5736H25.2154C25.2154 24.4963 25.2213 24.4131 25.2272 24.3298" fill="#212C56"/>
<path d="M20.4214 47.8738L20.4686 50.7335H23.2578L25.3572 50.6979V47.8738H20.4214Z" fill="#EB5C2C"/>
<path d="M57.6252 41.3636C56.9117 41.9344 56.1923 42.4219 55.4552 42.8262L55.3608 42.8797C52.4241 44.6396 49.0392 45.5849 45.5836 45.6087L41.5854 45.6206V47.8739H56.664C56.9884 47.7074 57.3009 47.529 57.6193 47.3447V41.3577L57.6252 41.3636Z" fill="#D5DA2F"/>
<path d="M41.5913 50.6326L45.613 50.6207C49.4874 50.5909 53.2791 49.6456 56.6699 47.8679H41.5913V50.6326Z" fill="#D5DA2F"/>
<path d="M25.3569 47.8738V50.6979L26.8784 50.68L41.5913 50.6325V47.8738H25.3569Z" fill="#F9B041"/>
<path d="M70.4395 12.9206H65.4506L65.3799 4.25806H70.3687L70.4395 12.9206Z" fill="#81708F"/>
<path d="M65.4564 13.42L65.4269 16.2262C65.4269 18.4736 65.4269 21.6782 65.3267 24.5736H70.3037C70.404 21.6247 70.404 18.4736 70.404 16.25L70.4334 13.4259V12.9265H65.4505V13.42H65.4564Z" fill="#48AE4D"/>
<path d="M65.0615 28.8009L64.9199 29.657L64.9022 29.7997C64.8905 29.9008 64.8315 30.1208 64.7843 30.2991C64.7489 30.4359 64.7135 30.5786 64.6782 30.7094C64.6192 30.8699 64.5779 31.0364 64.5484 31.2028C64.1062 32.5822 63.5459 33.9021 62.8324 35.2219C62.6496 35.5608 62.4432 35.8878 62.2368 36.2148H67.9097C68.3579 35.2636 68.7589 34.2945 69.095 33.3194L69.4547 32.1838L69.6257 31.625L69.5962 31.5417C69.667 31.2801 69.7437 30.971 69.8026 30.6261C69.8675 30.4061 69.9383 30.1089 69.9501 29.764L69.9737 29.5738C70.1388 28.1707 70.239 26.4108 70.298 24.5618H65.3209C65.2679 26.1314 65.1853 27.6058 65.0556 28.789" fill="#2C8939"/>
<path d="M33.7309 2.09984C33.9962 1.95715 34.4444 1.76095 34.8277 1.59448V7.21293C32.4748 8.6755 30.4404 10.6256 28.8953 12.9265H25.5518V9.03223C26.8137 7.37345 28.2644 5.88115 29.8919 4.59693C29.8919 4.59693 29.9214 4.5672 29.9804 4.51964H29.9863C29.9863 4.51964 30.0335 4.48397 30.0629 4.46019C31.0654 3.68133 32.121 2.97977 33.2355 2.36144C33.4006 2.27821 33.5599 2.18903 33.7309 2.09984Z" fill="#087EAD"/>
<path d="M35.4585 1.33289C35.3524 1.38045 35.2521 1.41612 35.146 1.45774C35.2698 1.40423 35.3819 1.36261 35.4585 1.33289Z" fill="#4D266C"/>
<path d="M58.7282 40.4123C58.3567 40.7571 57.9911 41.0663 57.6255 41.3635V47.3506C57.7021 47.303 57.7847 47.2674 57.8614 47.2198C59.3415 46.4112 60.7332 45.3886 62.0659 44.1341C64.1299 42.3029 65.8577 40.1209 67.2081 37.6417C67.4617 37.178 67.6916 36.7023 67.9216 36.2267H62.2487C61.2816 37.7784 60.1199 39.1816 58.7341 40.4123" fill="#8FC045"/>
<path d="M0.0646412 14.181L0.0410532 18.4617H0.0351562V19.2465H4.98862V19.199V18.4617V14.2286L0.0646412 14.181Z" fill="#4D266C"/>
<path d="M70.3688 0.00109863V4.25209H52.896V0.0427167C59.2706 0.0248804 65.3799 0.00109863 65.3799 0.00109863H70.3688Z" fill="#4D266C"/>
<path d="M42.4465 0.00113253C39.8459 -0.0285947 37.5107 0.530277 35.5883 1.2794C35.5411 1.29724 35.4999 1.31508 35.4645 1.33291C35.3583 1.38048 35.2581 1.41615 35.1519 1.45777C35.0399 1.50533 34.9396 1.54695 34.8335 1.59451V7.21295C35.8773 6.5649 36.9918 6.01197 38.1535 5.56012L38.242 5.52445C39.0911 5.15583 40.2292 4.85261 41.5914 4.59696C41.8804 4.54345 42.1693 4.48994 42.4701 4.44832H42.4878L52.8959 4.25212V0.0486961C49.0865 0.0486961 45.1886 0.0427506 42.4524 0.00113253" fill="#212C56"/>
<path d="M26.843 45.6621L25.3569 45.6799V47.8738H41.5913V45.6205L29.6735 45.6621H26.843Z" fill="#EB5C2C"/>
</svg>
