<svg width="60" height="60" viewBox="0 0 60 60" fill="none" xmlns="http://www.w3.org/2000/svg">
<circle cx="30" cy="30" r="30" fill="#F5749D"/>
<path d="M35.906 17C35.906 18.3733 35.906 19.6812 35.9713 21.0545C35.6448 21.0545 35.3183 21.0545 35.0571 21.0545C34.4693 21.0545 33.9469 21.0545 33.3591 21.0545C32.7061 21.0545 32.3142 21.3815 32.3142 22.0354C32.3142 22.951 32.3142 23.8011 32.3142 24.7166C33.555 24.7166 34.7958 24.7166 36.102 24.7166C35.9713 26.1553 35.8407 27.5286 35.7101 28.9673C34.5999 28.9673 33.4897 28.9673 32.3795 28.9673C32.4448 32.9564 32.4448 36.9455 32.5101 40.9346C30.8775 40.9346 29.1796 40.9346 27.5469 41C27.4816 37.0109 27.4816 33.0872 27.4163 29.0981C26.6326 29.0981 25.849 29.0981 25.0653 29.0981C25.0653 27.6594 25.0653 26.2861 25 24.8474C25.7837 24.8474 26.5673 24.8474 27.351 24.8474C27.351 24.7166 27.351 24.5858 27.351 24.5204C27.351 23.5395 27.2857 22.5586 27.351 21.5777C27.4816 20.0082 28.0694 18.6349 29.5061 17.7847C30.2244 17.327 31.0734 17.1308 31.9224 17.1308C33.2285 17.0654 34.5346 17.1308 35.8407 17.0654C35.8407 17 35.8407 17 35.906 17Z" fill="white"/>
</svg>
