<svg width="11" height="23" viewBox="0 0 11 23" fill="none" xmlns="http://www.w3.org/2000/svg">
<path d="M9.90936 0.985107C9.90936 2.19564 9.90936 3.34853 9.96693 4.55907C9.6791 4.55907 9.39127 4.55907 9.16101 4.55907C8.64292 4.55907 8.18239 4.55907 7.6643 4.55907C7.08865 4.55907 6.74325 4.84729 6.74325 5.42374C6.74325 6.23076 6.74325 6.98014 6.74325 7.78716C7.837 7.78716 8.93075 7.78716 10.0821 7.78716C9.96693 9.05534 9.8518 10.2659 9.73667 11.5341C8.75805 11.5341 7.77943 11.5341 6.80082 11.5341C6.85838 15.0504 6.85838 18.5667 6.91595 22.083C5.47681 22.083 3.9801 22.083 2.54096 22.1407C2.48339 18.6243 2.48339 15.1657 2.42583 11.6493C1.73504 11.6493 1.04425 11.6493 0.353463 11.6493C0.353463 10.3812 0.353464 9.17063 0.295898 7.90245C0.986686 7.90245 1.67747 7.90245 2.36826 7.90245C2.36826 7.78716 2.36826 7.67187 2.36826 7.61423C2.36826 6.74956 2.3107 5.88489 2.36826 5.02023C2.48339 3.63676 3.00148 2.42622 4.26793 1.67684C4.90115 1.27333 5.6495 1.1004 6.39786 1.1004C7.54917 1.04275 8.70048 1.1004 9.8518 1.04275C9.8518 0.985107 9.8518 0.985107 9.90936 0.985107Z" fill="white"/>
</svg>
