<svg width="60" height="60" viewBox="0 0 60 60" fill="none" xmlns="http://www.w3.org/2000/svg">
<circle cx="30" cy="30" r="30" fill="#F5749D"/>
<path d="M26.9265 28.4426C26.9265 26.2599 28.7072 24.4793 30.8898 24.4793C33.0725 24.4793 34.8531 26.2599 34.8531 28.4426C34.8531 30.6252 33.0725 32.4058 30.8898 32.4058C28.7072 32.4058 26.9265 30.6827 26.9265 28.4426ZM24.8013 28.4426C24.8013 31.8315 27.5584 34.5885 30.9473 34.5885C34.3362 34.5885 37.0932 31.8315 37.0932 28.4426C37.0932 25.0537 34.3362 22.2966 30.9473 22.2966C27.5584 22.2966 24.8013 25.1111 24.8013 28.4426ZM35.8296 22.1243C35.8296 22.9284 36.4614 23.5603 37.2655 23.5603C38.0697 23.5603 38.7015 22.9284 38.7015 22.1243C38.7015 21.3202 38.0697 20.6883 37.2655 20.6883C36.4614 20.6883 35.8296 21.3202 35.8296 22.1243ZM26.065 38.1497C24.9162 38.0923 24.2844 37.92 23.8249 37.7476C23.2505 37.5179 22.8484 37.2881 22.4463 36.8286C22.0443 36.4266 21.7571 36.0245 21.5273 35.4501C21.355 35.048 21.1827 34.4162 21.1252 33.21C21.0678 31.9463 21.0678 31.6017 21.0678 28.3851C21.0678 25.1686 21.0678 24.8239 21.1252 23.5603C21.1827 22.4115 21.355 21.7797 21.5273 21.3202C21.7571 20.7458 21.9868 20.3437 22.4463 19.9416C22.8484 19.5396 23.2505 19.2524 23.8249 19.0226C24.2269 18.8503 24.8588 18.678 26.065 18.6205C27.3286 18.5631 27.6733 18.5631 30.8898 18.5631C34.049 18.5631 34.451 18.5631 35.7147 18.6205C36.8635 18.678 37.4953 18.8503 37.9548 19.0226C38.5292 19.2524 38.9313 19.4821 39.3333 19.9416C39.7354 20.3437 40.0226 20.7458 40.2523 21.3202C40.4247 21.7222 40.597 22.3541 40.6544 23.5603C40.7119 24.8239 40.7119 25.1686 40.7119 28.3851C40.7119 31.5443 40.7119 31.9463 40.6544 33.21C40.597 34.3588 40.4247 34.9906 40.2523 35.4501C40.0226 36.0245 39.7928 36.4266 39.3333 36.8286C38.9313 37.2307 38.5292 37.5179 37.9548 37.7476C37.5527 37.92 36.9209 38.0923 35.7147 38.1497C34.451 38.2072 34.1064 38.2072 30.8898 38.2072C27.7307 38.2646 27.3286 38.2072 26.065 38.1497ZM26.0075 16.6102C24.7439 16.6676 23.8823 16.8974 23.1356 17.1846C22.3314 17.4718 21.6996 17.8738 21.0104 18.5631C20.3211 19.2524 19.919 19.8842 19.6318 20.6883C19.3446 21.435 19.1149 22.2966 19.0574 23.5603C19 24.8239 19 25.226 19 28.5C19 31.774 19 32.1186 19.0574 33.4397C19.1149 34.7034 19.3446 35.565 19.6318 36.3117C19.919 37.1158 20.3211 37.7476 21.0104 38.4369C21.6996 39.1262 22.3314 39.5282 23.1356 39.8154C23.8823 40.1026 24.7439 40.3324 26.0075 40.3898C27.2712 40.4473 27.6733 40.4473 30.9473 40.4473C34.1638 40.4473 34.5659 40.4473 35.887 40.3898C37.1507 40.3324 38.0122 40.1026 38.7589 39.8154C39.5631 39.5282 40.1949 39.1262 40.8842 38.4369C41.5734 37.7476 41.9755 37.1158 42.2627 36.3117C42.5499 35.565 42.7797 34.7034 42.8371 33.4397C42.8945 32.1761 42.8945 31.774 42.8945 28.5C42.8945 25.226 42.8945 24.8814 42.8371 23.5603C42.7797 22.2966 42.5499 21.435 42.2627 20.6883C41.9755 19.8842 41.5734 19.2524 40.8842 18.5631C40.1949 17.8738 39.5631 17.4718 38.7589 17.1846C38.0122 16.8974 37.1507 16.6676 35.887 16.6102C34.6233 16.5527 34.2213 16.5527 30.9473 16.5527C27.6733 16.5527 27.2712 16.5527 26.0075 16.6102Z" fill="white"/>
</svg>
