<svg width="21" height="20" viewBox="0 0 21 20" fill="none" xmlns="http://www.w3.org/2000/svg">
<path d="M5.29608 7.02979H0.888672V19.3705H5.29608V7.02979Z" fill="white"/>
<path d="M3.07605 5.26678C4.44724 5.26678 5.29608 4.29715 5.29608 3.06308C5.27975 1.81137 4.44724 0.859375 3.1087 0.859375C1.77015 0.859375 0.888672 1.81137 0.888672 3.06308C0.888672 4.31478 1.73751 5.26678 3.05973 5.26678H3.09237H3.07605Z" fill="white"/>
<path d="M11.9697 19.3705V12.6498C11.9697 12.2829 12.0034 11.9327 12.1046 11.6659C12.3912 10.9488 13.0655 10.1984 14.1782 10.1984C15.645 10.1984 16.235 11.299 16.235 12.9166V19.3538H20.2812V12.4497C20.2812 8.74748 18.2918 7.02979 15.6281 7.02979C13.487 7.02979 12.5092 8.19715 11.9866 9.01431V9.06434H11.9529L11.9866 9.01431V7.31329H7.94043C7.99101 8.4473 7.94043 19.3538 7.94043 19.3538H11.9866L11.9697 19.3705Z" fill="white"/>
</svg>
