<svg width="60" height="60" viewBox="0 0 60 60" fill="none" xmlns="http://www.w3.org/2000/svg">
<circle cx="30" cy="30" r="30" fill="#1B58CD"/>
<path d="M37.0101 25.6639C38.7656 26.771 40.9162 27.4225 43.2388 27.4225V23.4791C42.7992 23.4792 42.3608 23.4387 41.9307 23.3583V26.4623C39.6083 26.4623 37.458 25.811 35.7021 24.7039V32.7512C35.7021 36.777 32.0033 40.0402 27.4409 40.0402C25.7385 40.0402 24.1562 39.5861 22.8418 38.8073C24.342 40.1608 26.4341 41.0003 28.7486 41.0003C33.3114 41.0003 37.0103 37.7371 37.0103 33.7111V25.6639H37.0101ZM38.6239 21.6855C37.7267 20.8207 37.1376 19.7032 37.0101 18.4676V17.9604H35.7706C36.0826 19.5307 37.1469 20.8723 38.6238 21.6855H38.6239ZM25.7275 35.7182C25.2263 35.1384 24.9553 34.429 24.9566 33.6996C24.9566 31.8584 26.6484 30.3655 28.7357 30.3655C29.1246 30.3654 29.5113 30.4181 29.882 30.5218V26.4902C29.4488 26.4378 29.0115 26.4155 28.5745 26.4237V29.5617C28.2036 29.4579 27.8167 29.4052 27.4276 29.4055C25.3404 29.4055 23.6487 30.8983 23.6487 32.7397C23.6487 34.0418 24.4942 35.169 25.7275 35.7182Z" fill="#FF004F"/>
<path d="M35.7012 24.7038C37.4571 25.8109 39.6072 26.4622 41.9298 26.4622V23.3582C40.6333 23.1146 39.4857 22.5169 38.6228 21.6855C37.1458 20.8722 36.0816 19.5307 35.7696 17.9604H32.5137V33.711C32.5063 35.5472 30.8174 37.0339 28.7346 37.0339C27.5073 37.0339 26.4169 36.5178 25.7264 35.7181C24.4933 35.169 23.6476 34.0417 23.6476 32.7398C23.6476 30.8985 25.3393 29.4056 27.4266 29.4056C27.8265 29.4056 28.2119 29.4605 28.5735 29.5618V26.4238C24.0911 26.5055 20.4863 29.7369 20.4863 33.7111C20.4863 35.695 21.384 37.4934 22.8409 38.8075C24.1553 39.5861 25.7376 40.0404 27.44 40.0404C32.0025 40.0404 35.7013 36.7769 35.7013 32.7512V24.7039H35.7012V24.7038Z" fill="white"/>
<path d="M41.9292 23.3577V22.5186C40.7601 22.5201 39.6141 22.2313 38.6222 21.685C39.5002 22.5331 40.6564 23.1179 41.9292 23.3579V23.3577ZM35.7689 17.9599C35.7392 17.8099 35.7163 17.6588 35.7005 17.5072V17H31.2048V32.7507C31.1977 34.5867 29.5088 36.0735 27.4259 36.0735C26.8354 36.0743 26.253 35.9524 25.7257 35.7178C26.4162 36.5174 27.5066 37.0334 28.7339 37.0334C30.8166 37.0334 32.5057 35.5468 32.513 33.7106V17.96H35.7689V17.9599ZM28.573 26.4233V25.5298C28.1974 25.4845 27.8187 25.4618 27.4395 25.462C22.8765 25.462 19.1777 28.7254 19.1777 32.7507C19.1777 35.2745 20.6314 37.4986 22.8404 38.8069C21.3835 37.4929 20.4858 35.6943 20.4858 33.7105C20.4858 29.7365 24.0905 26.5051 28.573 26.4234V26.4233Z" fill="#00F2EA"/>
</svg>
