<svg width="22" height="22" viewBox="0 0 22 22" fill="none" xmlns="http://www.w3.org/2000/svg">
<path d="M18.0717 3.64586C17.0976 2.66676 15.9374 1.89055 14.6588 1.36252C13.3801 0.834488 12.0087 0.565208 10.6245 0.570386C4.82421 0.570386 0.0971534 5.27483 0.0918406 11.0503C0.0918406 12.9001 0.577961 14.6996 1.49575 16.2929L0.00683594 21.7259L5.59058 20.2688C7.13459 21.1074 8.86559 21.5461 10.6245 21.5447H10.6298C16.4313 21.5447 21.1571 16.8403 21.1624 11.0595C21.1636 9.68186 20.891 8.31757 20.3603 7.04521C19.8296 5.77285 19.0527 4.61756 18.0717 3.64586ZM10.6245 19.7703C9.05608 19.7691 7.51677 19.349 6.16702 18.5539L5.84825 18.3635L2.53573 19.2282L3.42031 16.0112L3.21311 15.6794C2.33624 14.2915 1.87249 12.6846 1.87561 11.045C1.87561 6.25063 5.80309 2.33951 10.6298 2.33951C11.7796 2.33746 12.9186 2.56201 13.9808 3.00021C15.0431 3.43842 16.0078 4.08161 16.8192 4.89271C17.6332 5.70078 18.2786 6.66124 18.7181 7.71872C19.1576 8.77621 19.3825 9.90983 19.3799 11.0542C19.3746 15.8658 15.4471 19.7703 10.6245 19.7703ZM15.4259 13.2465C15.1642 13.1156 13.8719 12.4822 13.6288 12.3923C13.3871 12.3064 13.2105 12.2614 13.0378 12.5232C12.8611 12.7837 12.3564 13.3774 12.205 13.5479C12.0536 13.7238 11.8969 13.7436 11.6339 13.6141C11.3722 13.4818 10.5235 13.2068 9.51939 12.3117C8.73575 11.6175 8.21112 10.7581 8.05439 10.4976C7.90297 10.2358 8.03978 10.0956 8.17127 9.96474C8.28682 9.84838 8.43293 9.65798 8.56442 9.50725C8.69724 9.35652 8.74107 9.24545 8.8274 9.07092C8.91373 8.89374 8.87256 8.74301 8.80748 8.61211C8.74107 8.48121 8.21643 7.1894 7.99462 6.66845C7.78211 6.15411 7.56561 6.22551 7.40357 6.2189C7.25216 6.20964 7.07551 6.20964 6.89886 6.20964C6.76547 6.21302 6.63422 6.24377 6.51332 6.29997C6.39243 6.35616 6.28448 6.43659 6.19624 6.53623C5.95451 6.79803 5.27845 7.43137 5.27845 8.72318C5.27845 10.015 6.22148 11.2565 6.35429 11.4324C6.48446 11.6083 8.2058 14.2514 10.8476 15.3885C11.4718 15.6595 11.9633 15.8195 12.3471 15.9412C12.978 16.1421 13.5478 16.1117 14.0021 16.0469C14.5068 15.9702 15.5574 15.4123 15.7792 14.8001C15.997 14.1866 15.997 13.663 15.9306 13.5532C15.8655 13.4422 15.6889 13.3774 15.4259 13.2465Z" fill="white"/>
</svg>
